<svg id="svg" version="1.1" xmlns="http://www.w3.org/2000/svg" width="400" height="400" viewBox="0, 0, 400,400"><g id="svgg"><path id="path0" d="M216.681 310.534 L 188.761 338.200 209.681 359.000 L 230.600 379.800 210.692 359.791 L 190.785 339.782 192.492 338.123 C 193.983 336.675,195.088 336.154,201.200 334.016 C 224.747 325.778,227.600 324.675,227.600 323.804 C 227.600 323.343,227.231 320.304,226.780 317.052 C 225.468 307.585,227.666 303.529,242.373 288.286 C 246.092 284.430,246.137 284.360,245.374 283.620 C 244.613 282.880,244.144 283.320,216.681 310.534 " stroke="none" fill="#044478" fill-rule="evenodd"></path><path id="path1" d="M140.400 110.200 L 50.601 200.000 78.600 227.900 L 106.599 255.800 78.800 227.900 L 51.001 199.999 140.800 110.200 C 190.190 60.810,230.509 20.400,230.399 20.400 C 230.289 20.400,189.790 60.810,140.400 110.200 M209.400 206.800 C 197.962 218.240,188.782 227.600,189.000 227.600 C 189.219 227.600,176.979 240.019,161.801 255.199 L 134.205 282.797 161.700 310.303 L 189.194 337.808 216.797 310.203 L 244.400 282.598 216.800 255.000 L 189.200 227.403 209.899 206.701 C 221.283 195.316,230.507 186.000,230.397 186.000 C 230.287 186.000,220.838 195.360,209.400 206.800 " stroke="none" fill="#2cb4f3" fill-rule="evenodd"></path><path id="path2" d="M242.378 288.280 C 227.666 303.530,225.468 307.584,226.780 317.052 C 227.231 320.304,227.600 323.343,227.600 323.804 C 227.600 324.674,224.516 325.867,201.200 334.013 C 195.029 336.169,193.999 336.656,192.502 338.133 L 190.804 339.807 210.705 359.705 L 230.606 379.603 285.904 379.501 L 341.201 379.400 293.680 331.880 L 246.159 284.360 242.378 288.280 M217.592 309.500 L 213.800 313.400 217.700 309.608 C 221.322 306.086,221.782 305.600,221.492 305.600 C 221.433 305.600,219.678 307.355,217.592 309.500 " stroke="none" fill="#04549c" fill-rule="evenodd"></path><path id="path3" d="M140.800 110.200 L 51.001 200.000 78.700 227.700 L 106.400 255.400 223.900 137.900 L 341.400 20.400 286.000 20.400 L 230.599 20.400 140.800 110.200 M209.899 206.701 L 189.200 227.403 216.901 255.101 L 244.602 282.800 292.701 234.699 C 319.155 208.244,340.800 186.464,340.800 186.299 C 340.800 186.135,316.004 186.000,285.699 186.000 L 230.597 186.000 209.899 206.701 " stroke="none" fill="#54c4fc" fill-rule="evenodd"></path><path id="path4" d="M161.000 255.200 L 133.402 282.800 160.984 310.384 C 176.154 325.555,188.656 337.878,188.766 337.768 C 188.876 337.658,176.644 325.245,161.584 310.184 L 134.202 282.800 161.800 255.200 C 176.979 240.020,189.218 227.600,188.998 227.600 C 188.778 227.600,176.179 240.020,161.000 255.200 " stroke="none" fill="#24b9f9" fill-rule="evenodd"></path><path id="path5" d="" stroke="none" fill="#4cc1f4" fill-rule="evenodd"></path><path id="path6" d="M232.800 294.200 C 226.533 300.470,221.495 305.600,221.605 305.600 C 221.715 305.600,226.933 300.470,233.200 294.200 C 239.467 287.930,244.505 282.800,244.395 282.800 C 244.285 282.800,239.067 287.930,232.800 294.200 " stroke="none" fill="#1474a4" fill-rule="evenodd"></path><path id="path7" d="" stroke="none" fill="#2c48d0" fill-rule="evenodd"></path><path id="path8" d="" stroke="none" fill="#58c0fc" fill-rule="evenodd"></path></g></svg>